HIERARCHY
ROOT Hips
{
	OFFSET 0.00000 0.00000 0.00000
	CHANNELS 6 Xposition Yposition Zposition Zrotation Yrotation Xrotation 
	JOINT LHipJoint
	{
		OFFSET 0 0 0
		CHANNELS 3 Zrotation Yrotation Xrotation
		JOINT LeftUpLeg
		{
			OFFSET 2.36090 -1.39315 1.24752
			CHANNELS 3 Zrotation Yrotation Xrotation
			JOINT LeftLeg
			{
				OFFSET 2.06810 -5.68207 0.00000
				CHANNELS 3 Zrotation Yrotation Xrotation
				JOINT LeftFoot
				{
					OFFSET 2.46631 -6.77613 0.00000
					CHANNELS 3 Zrotation Yrotation Xrotation
					JOINT LeftToeBase
					{
						OFFSET 0.26031 -0.71520 1.99545
						CHANNELS 3 Zrotation Yrotation Xrotation
						End Site
						{
							OFFSET 0.00000 -0.00000 1.05957
						}
					}
				}
			}
		}
	}
	JOINT RHipJoint
	{
		OFFSET 0 0 0
		CHANNELS 3 Zrotation Yrotation Xrotation
		JOINT RightUpLeg
		{
			OFFSET -2.25243 -1.39315 1.24752
			CHANNELS 3 Zrotation Yrotation Xrotation
			JOINT RightLeg
			{
				OFFSET -2.17343 -5.97145 0.00000
				CHANNELS 3 Zrotation Yrotation Xrotation
				JOINT RightFoot
				{
					OFFSET -2.52372 -6.93386 0.00000
					CHANNELS 3 Zrotation Yrotation Xrotation
					JOINT RightToeBase
					{
						OFFSET -0.22538 -0.61923 2.11447
						CHANNELS 3 Zrotation Yrotation Xrotation
						End Site
						{
							OFFSET -0.00000 -0.00000 1.10506
						}
					}
				}
			}
		}
	}
	JOINT LowerBack
	{
		OFFSET 0 0 0
		CHANNELS 3 Zrotation Yrotation Xrotation
		JOINT Spine
		{
			OFFSET 0.01594 2.13103 0.08007
			CHANNELS 3 Zrotation Yrotation Xrotation
			JOINT Spine1
			{
				OFFSET 0.01393 2.09723 0.18338
				CHANNELS 3 Zrotation Yrotation Xrotation
				JOINT Neck
				{
					OFFSET 0 0 0
					CHANNELS 3 Zrotation Yrotation Xrotation
					JOINT Neck1
					{
						OFFSET 0.05351 1.38915 0.32494
						CHANNELS 3 Zrotation Yrotation Xrotation
						JOINT Head
						{
							OFFSET 0.00711 1.45992 -0.21666
							CHANNELS 3 Zrotation Yrotation Xrotation
							End Site
							{
								OFFSET -0.00433 1.47702 -0.11056
							}
						}
					}
				}
				JOINT LeftShoulder
				{
					OFFSET 0 0 0
					CHANNELS 3 Zrotation Yrotation Xrotation
					JOINT LeftArm
					{
						OFFSET 2.87198 0.92249 0.11132
						CHANNELS 3 Zrotation Yrotation Xrotation
						JOINT LeftForeArm
						{
							OFFSET 5.52731 -0.00000 0.00000
							CHANNELS 3 Zrotation Yrotation Xrotation
							JOINT LeftHand
							{
								OFFSET 3.11059 -0.00000 0.00000
								CHANNELS 3 Zrotation Yrotation Xrotation
								JOINT LeftFingerBase
								{
									OFFSET 0 0 0
									CHANNELS 3 Zrotation Yrotation Xrotation
									JOINT LeftHandIndex1
									{
										OFFSET 0.41963 -0.00000 0.00000
										CHANNELS 3 Zrotation Yrotation Xrotation
										End Site
										{
											OFFSET 0.33831 -0.00000 0.00000
										}
									}
								}
								JOINT LThumb
								{
									OFFSET 0 0 0
									CHANNELS 3 Zrotation Yrotation Xrotation
									End Site
									{
										OFFSET 0.34348 -0.00000 0.34348
									}
								}
							}
						}
					}
				}
				JOINT RightShoulder
				{
					OFFSET 0 0 0
					CHANNELS 3 Zrotation Yrotation Xrotation
					JOINT RightArm
					{
						OFFSET -2.94710 0.68072 0.32187
						CHANNELS 3 Zrotation Yrotation Xrotation
						JOINT RightForeArm
						{
							OFFSET -5.25396 -0.00000 -0.00000
							CHANNELS 3 Zrotation Yrotation Xrotation
							JOINT RightHand
							{
								OFFSET -3.10567 -0.00000 0.00000
								CHANNELS 3 Zrotation Yrotation Xrotation
								JOINT RightFingerBase
								{
									OFFSET 0 0 0
									CHANNELS 3 Zrotation Yrotation Xrotation
									JOINT RightHandIndex1
									{
										OFFSET -0.49868 -0.00000 0.00000
										CHANNELS 3 Zrotation Yrotation Xrotation
										End Site
										{
											OFFSET -0.40204 -0.00000 0.00000
										}
									}
								}
								JOINT RThumb
								{
									OFFSET 0 0 0
									CHANNELS 3 Zrotation Yrotation Xrotation
									End Site
									{
										OFFSET -0.40818 -0.00000 0.40818
									}
								}
							}
						}
					}
				}
			}
		}
	}
}
MOTION
Frames: 8
Frame Time: 0.25
0.00 0.00 0.00 0 0 0 0 0 0 -21 0 0 0 0 0 0 0 0 0 0 0 0 0 0 21 0 0 0 0 0 0 0 0 0 0 0 0 0 0 0 0 0 0 0 0 0 0 -16 0 0 21 0 0 11 0 0 0 -8 0 0 0 0 0 0 0 0 0 0 0 0 0 0 0 0 0 0 0 0 8 0 0 0 0 0 0 0 0 0 0 0 0 0 0 0 0 0
0.00 0.00 0.00 -135.5060 -83.5582 151.7760 0.0000 0.0000 0.0000 0.0000 0.0000 0.0000 0.0000 0.0000 0.0000 0.0000 0.0000 0.0000 0.0000 0.0000 0.0000 0.0000 0.0000 0.0000 24.3172 26.3572 -17.6005 -1.6642 -8.1285 23.1052 -0.2858 -6.6669 -14.6924 -0.1426 -2.4338 6.7062 0.7001 0.5773 -21.6677 2.1326 -0.0581 -6.7723 1.8573 -0.2424 4.7229 5.2830 5.0360 -19.4360 1.7276 4.7737 22.7491 0.4405 2.7990 10.6342 -0.0000 -0.0000 0.0000 -81.2571 14.6125 43.3263 18.3975 -28.6632 -4.7384 -0.0000 0.0000 -38.9205 20.7121 8.0351 3.0254 -7.1250 0.0000 -0.0000 -5.2915 38.5120 0.8484 -0.0000 -0.0000 0.0000 83.5910 -17.9968 -14.6653 -9.1605 15.4159 -1.2424 0.0000 -0.0000 -6.6686 2.0521 -33.8336 -1.1429 7.1250 -0.0000 -0.0000 39.2440 -59.2498 -15.0806
0.00 0.00 0.00 -94.2842 -87.8891 114.6380 0.0000 0.0000 0.0000 0.0000 0.0000 0.0000 0.0000 0.0000 0.0000 0.0000 0.0000 0.0000 0.0000 0.0000 0.0000 0.0000 0.0000 0.0000 19.2406 27.6568 -24.1205 -2.0147 -8.8967 25.4727 -0.0574 -10.7812 -16.1839 -0.0956 -1.9943 5.4900 -0.2679 0.1072 -16.5979 1.9643 -0.2748 -6.5410 2.1600 -0.2770 2.3478 10.4447 8.3582 -15.5942 7.4081 7.2877 14.9750 1.5723 4.6761 7.3563 -0.0000 0.0000 0.0000 -75.9380 21.1538 23.6090 24.5975 -35.7898 -8.0534 -0.0000 0.0000 -44.1339 16.5382 8.5021 2.5137 -7.1250 0.0000 -0.0000 -8.9265 38.6976 1.3989 -0.0000 0.0000 0.0000 60.3263 -6.8159 -31.1750 -28.2514 39.3466 -10.2827 0.0000 -0.0000 -6.2076 -40.7729 -28.6973 22.4938 7.1250 -0.0000 -0.0000 -13.8088 -65.3424 6.8483
0.00 0.00 0.00 -32.0912 -89.0785 60.7434 0.0000 0.0000 0.0000 0.0000 0.0000 0.0000 0.0000 0.0000 0.0000 0.0000 0.0000 0.0000 0.0000 0.0000 0.0000 0.0000 0.0000 0.0000 10.6703 32.4424 -36.1922 -2.1379 -9.1477 26.2584 0.4034 -14.4254 -15.0553 -0.1057 -2.0963 5.7719 0.6841 1.0670 -13.6977 1.5252 0.9888 -6.1576 1.3419 0.3706 1.1891 12.1838 9.3876 -15.9654 9.7884 7.1996 18.3188 2.2535 5.0802 8.5978 -0.0000 -0.0000 0.0000 -72.9215 18.7002 1.4823 22.9096 -33.9898 -7.0877 -0.0000 0.0000 -43.8730 24.4821 3.2383 1.4735 -7.1250 0.0000 -0.0000 -1.7406 33.5336 0.4895 -0.0000 -0.0000 0.0000 58.6510 0.7394 -4.3662 -73.4621 58.9409 -45.7287 0.0000 0.0000 6.7747 -53.9069 -8.7488 11.7849 7.1250 -0.0000 -0.0000 -24.6310 -43.1506 -1.2030
0.00 0.00 0.00 7.7413 -89.2087 24.8234 0.0000 0.0000 0.0000 0.0000 0.0000 0.0000 0.0000 0.0000 0.0000 0.0000 0.0000 0.0000 0.0000 0.0000 0.0000 0.0000 0.0000 0.0000 5.6550 34.8036 -42.4969 -2.1746 -9.2206 26.4878 0.7065 -16.5247 -14.2687 -0.1096 -2.1348 5.8784 0.8182 1.4306 -11.8918 1.3360 1.5490 -5.5734 1.1138 0.6740 0.8281 13.1142 9.7548 -16.1788 9.6219 7.1039 20.7812 2.1789 5.2011 9.5730 -0.0000 -0.0000 0.0000 -71.8180 17.4964 -5.6625 23.8097 -34.9624 -7.5972 -0.0000 0.0000 -47.4103 26.4066 2.9374 1.4576 -7.1250 0.0000 -0.0000 -0.1600 33.2586 0.0460 -0.0000 -0.0000 0.0000 58.1108 3.7683 9.9901 -92.9844 59.9663 -62.5843 0.0000 0.0000 7.5272 -53.0477 -3.8276 5.0711 7.1250 -0.0000 -0.0000 -21.8414 -35.5394 -5.4056
0.00 0.00 0.00 52.6923 -88.2107 -8.6629 0.0000 0.0000 0.0000 0.0000 0.0000 0.0000 0.0000 0.0000 0.0000 0.0000 0.0000 0.0000 0.0000 0.0000 0.0000 0.0000 0.0000 0.0000 -8.2841 36.0628 -61.7075 -2.2054 -9.2815 26.6799 1.2395 -19.6266 -11.6096 -0.1668 -2.6315 7.2544 1.4796 2.7888 -5.9170 0.8324 3.5796 -1.7891 0.2818 1.7745 1.5072 14.1721 9.2061 -14.0753 8.7201 5.5924 27.4954 1.6819 4.7248 11.7847 0.0000 0.0000 0.0000 -66.0523 16.0016 -3.6751 23.5054 -34.6369 -7.4236 -0.0000 0.0000 -50.8792 7.6698 5.4186 0.7286 -7.1250 0.0000 -0.0000 -15.7074 35.0777 3.9517 0.0000 0.0000 0.0000 60.5159 16.6405 58.7896 -100.8261 59.5525 -69.3616 0.0000 -0.0000 -18.7634 -26.6331 -1.9755 0.9904 7.1250 -0.0000 -0.0000 -0.0411 -32.1895 -0.0129
0.00 0.00 0.00 56.2304 -86.5136 0.2386 0.0000 0.0000 0.0000 0.0000 0.0000 0.0000 0.0000 0.0000 0.0000 0.0000 0.0000 0.0000 0.0000 0.0000 0.0000 0.0000 0.0000 0.0000 -15.7040 29.7228 -79.4991 -2.4387 -9.7256 28.0926 0.9598 -17.1405 -8.4991 -0.1076 -2.1152 5.8242 2.6940 3.6155 0.4269 3.7349 4.2471 6.8134 2.6177 2.0141 6.7785 9.2690 6.6651 -13.4622 4.5708 4.7114 28.3170 0.7466 3.4203 11.7111 0.0000 -0.0000 0.0000 -67.1092 12.9619 37.7016 23.5047 -34.6361 -7.4232 -0.0000 0.0000 -56.4406 7.1332 0.7593 0.0950 -7.1250 0.0000 -0.0000 -15.2948 30.5306 5.5833 0.0000 -0.0000 0.0000 66.7396 19.0220 79.0439 -83.3621 59.8329 -54.2547 0.0000 -0.0000 -53.3570 31.4130 -12.0436 -7.2620 7.1250 -0.0000 -0.0000 46.0147 -37.0659 12.5417
0.00 0.00 0.00 93.7802 -88.2191 -55.8675 0.0000 0.0000 0.0000 0.0000 0.0000 0.0000 0.0000 0.0000 0.0000 0.0000 0.0000 0.0000 0.0000 0.0000 0.0000 0.0000 0.0000 0.0000 -1.4759 35.4117 -52.3189 -2.4520 -9.7500 28.1710 0.7219 -16.4103 -13.6218 -0.1488 -2.4859 6.8505 1.3660 2.8934 -7.4085 2.7699 3.5354 1.2794 2.5381 1.7226 5.3950 5.6401 4.5667 -13.7992 1.4559 4.1083 25.5791 0.0810 2.4437 10.6026 0.0000 0.0000 0.0000 -71.6007 16.5663 35.3827 22.6655 -33.7210 -6.9517 -0.0000 0.0000 -47.5304 14.4259 0.7752 0.1994 -7.1250 0.0000 -0.0000 -9.6156 30.6990 3.4017 0.0000 0.0000 0.0000 72.6683 12.0174 71.4717 -62.4433 56.9266 -36.3814 0.0000 -0.0000 -48.1775 12.2468 -17.4243 -3.7189 7.1250 -0.0000 -0.0000 36.0964 -44.1488 0.8812
